<svg width="20" height="61" viewBox="0 0 20 61" fill="none" xmlns="http://www.w3.org/2000/svg">
<path d="M18.1468 17.3258C16.1086 8.41771 11.0009 1.1714 10.2969 0C9.18368 1.66175 5.11005 8.06357 3.03911 15.1464C0.777201 23.0738 0.444321 30.1022 1.22467 36.9944C1.99957 43.9138 4.92724 51.0239 4.92724 51.0239C6.48249 54.7288 8.81262 58.7333 10.3297 60.6947C12.5534 57.8071 17.6639 49.1987 19.2573 37.9751C20.1441 31.7095 20.1822 26.2339 18.1468 17.3258ZM10.2969 58.4609C9.29557 56.5812 7.74031 53.0126 7.59298 47.4552C7.55478 42.1158 9.7021 37.512 10.3297 36.5585C10.889 37.512 12.7389 41.5165 12.9599 46.9921C13.11 52.3315 11.331 56.554 10.2969 58.4609ZM17.5547 32.445C17.4783 35.8502 17.0718 39.4461 16.5534 41.5982C16.7389 37.8934 16.2942 32.6902 15.4429 28.6039C14.5916 24.5449 12.1823 17.7344 10.2587 14.6016C8.48247 17.5982 6.29422 23.4824 5.14825 28.5767C3.99683 33.6709 3.96408 39.8548 3.96408 41.7072C3.65849 40.1544 2.8945 34.5699 3.11006 28.9853C3.29014 24.3814 4.37062 19.6141 4.96271 17.4348C7.2219 10.1612 9.7785 5.50284 10.2587 4.7673C10.7389 5.50284 13.9586 11.2509 15.6284 17.2713C17.2901 23.2917 17.6257 29.067 17.5547 32.445Z" fill="white" fill-opacity="0.5"/>
</svg>
